<?xml version="1.0" standalone="no"?>
<!DOCTYPE svg PUBLIC "-//W3C//DTD SVG 20010904//EN"
 "http://www.w3.org/TR/2001/REC-SVG-20010904/DTD/svg10.dtd">
<svg version="1.0" xmlns="http://www.w3.org/2000/svg"
 width="700.000000pt" height="700.000000pt" viewBox="0 0 700.000000 700.000000"
 preserveAspectRatio="xMidYMid meet">
<metadata>
Created by potrace 1.14, written by Peter Selinger 2001-2017
</metadata>
<g transform="translate(0.000000,700.000000) scale(0.100000,-0.100000)"
fill="#000000" stroke="none">
<path d="M3278 6995 c-1 -1 -42 -5 -89 -9 -47 -4 -95 -8 -105 -10 -10 -2 -41
-7 -69 -10 -428 -56 -875 -210 -1270 -439 -103 -60 -265 -165 -315 -204 -8 -6
-51 -40 -95 -74 -353 -275 -673 -651 -897 -1054 -49 -87 -148 -289 -148 -301
0 -2 -9 -23 -20 -47 -57 -123 -157 -435 -186 -582 -2 -11 -10 -54 -19 -95 -22
-115 -30 -160 -41 -255 -26 -230 -26 -667 1 -826 2 -13 6 -46 9 -74 9 -78 22
-152 51 -285 21 -96 91 -339 114 -395 5 -11 25 -65 46 -120 63 -166 249 -531
312 -610 4 -6 34 -49 65 -95 170 -255 433 -535 708 -755 92 -74 370 -265 386
-265 4 0 15 -6 23 -14 26 -22 298 -158 411 -205 267 -111 589 -200 859 -237
25 -3 57 -8 71 -10 163 -25 682 -25 842 1 13 2 46 7 73 10 71 10 87 13 115 18
14 3 43 8 65 12 22 4 76 16 120 27 44 10 87 21 96 23 25 5 157 45 219 65 178
57 568 235 660 300 15 11 33 20 39 20 6 0 11 5 11 10 0 6 5 10 10 10 15 0 220
141 330 227 152 118 324 280 450 422 36 41 70 79 76 85 6 6 48 61 94 121 150
197 277 405 383 628 26 53 47 99 47 102 0 2 11 28 24 57 57 127 151 421 182
573 17 81 54 301 59 350 4 33 9 71 11 85 9 47 11 525 3 605 -15 165 -21 220
-24 225 -2 3 -6 30 -10 60 -9 75 -69 337 -99 435 -135 446 -345 845 -627 1195
-425 527 -979 914 -1614 1128 -168 57 -420 119 -555 137 -19 3 -46 7 -60 10
-13 2 -52 7 -86 11 -33 3 -74 8 -90 10 -32 5 -540 14 -546 9z m99 -896 c134
-67 163 -240 57 -345 -50 -51 -87 -63 -216 -69 -597 -30 -1207 -410 -1590
-990 -195 -295 -296 -596 -314 -930 -6 -115 -21 -154 -77 -206 -46 -43 -110
-64 -170 -56 -125 17 -198 116 -192 262 4 92 14 211 20 227 2 7 6 31 9 53 57
432 337 953 712 1329 435 434 995 710 1509 743 50 3 91 6 93 8 1 1 27 1 57 0
33 -2 72 -12 102 -26z m386 -1313 c261 -58 475 -173 657 -356 104 -104 109
-110 167 -196 83 -123 138 -243 179 -391 33 -122 39 -171 39 -343 0 -202 -13
-281 -71 -445 -103 -288 -321 -546 -594 -700 -124 -70 -301 -132 -427 -150
-23 -3 -57 -8 -75 -10 -42 -6 -233 -6 -276 0 -97 13 -122 18 -177 31 -228 57
-441 178 -610 349 -256 256 -386 571 -385 925 0 131 4 162 36 316 2 12 15 56
30 100 96 296 323 570 604 729 129 73 305 134 429 150 25 3 47 7 49 10 12 12
353 -3 425 -19z"/>
<path d="M3396 3924 c-110 -26 -220 -110 -279 -214 -75 -130 -67 -330 18 -449
40 -56 47 -64 95 -102 73 -58 153 -89 244 -94 407 -20 619 474 324 753 -43 40
-130 92 -167 99 -14 2 -28 6 -33 9 -20 12 -147 11 -202 -2z"/>
</g>
</svg>
